# xmcd CD database file
#
# Track frame offsets:
#	150
#	20237
#	45732
#	71088
#	96049
#	114167
#	134699
#	158598
#	179015
#	205630
#	230786
#	260502
#	288015
#	312154
#	329902
#
# Disc length: 4641 seconds
#
# Revision: 0
# Processed by: cddbd v1.5.2PL0 Copyright (c) Steve Scherf et al.
# Submitted via: CDex 1.51
#
DISCID=e0121f0f
DTITLE=Dick Williams and His New Orleans Jazz  Associates - Dick Williams and His New Orleans Jazz  Associates
DYEAR=1998
DGENRE=Jazz
TTITLE0=It's a Long Way to Tipperary
TTITLE1=Mecca Flats Blues
TTITLE2=St. Louis Blues
TTITLE3=Breeze
TTITLE4=Bugle Boy March
TTITLE5=Lily of the Valley
TTITLE6=Milenburg Joys
TTITLE7=Savoy Blues
TTITLE8=When Your Hair Has Turned to Silver
TTITLE9=Take My Hand, Precious Lord
TTITLE10=Melancholy Blues
TTITLE11=Into Each Life Some Rain Must Fall
TTITLE12=Why Should I Cry Over You?
TTITLE13=Bogalusa Strut
TTITLE14=When I Grow Too Old to Dream
EXTD=YEAR: 1998
EXTT0=
EXTT1=
EXTT2=
EXTT3=
EXTT4=
EXTT5=
EXTT6=
EXTT7=
EXTT8=
EXTT9=
EXTT10=
EXTT11=
EXTT12=
EXTT13=
EXTT14=
PLAYORDER=
